<svg xmlns="http://www.w3.org/2000/svg" width="1200" height="700" viewBox="0 0 1200 700">
  <defs>
    <linearGradient id="g" x1="0" y1="0" x2="1" y2="1">
      <stop offset="0" stop-color="#7c5cff"/>
      <stop offset="1" stop-color="#20d3ff"/>
    </linearGradient>
    <filter id="s" x="-20%" y="-20%" width="140%" height="140%">
      <feDropShadow dx="0" dy="12" stdDeviation="18" flood-color="rgba(0,0,0,.35)"/>
    </filter>
  </defs>
  <rect width="1200" height="700" rx="28" fill="rgba(255,255,255,.04)"/>
  <rect x="60" y="70" width="1080" height="560" rx="22" fill="rgba(255,255,255,.05)" stroke="rgba(255,255,255,.14)"/>
  <rect x="92" y="104" width="220" height="26" rx="13" fill="rgba(255,255,255,.08)"/>
  <rect x="330" y="104" width="140" height="26" rx="13" fill="rgba(255,255,255,.08)"/>
  <rect x="488" y="104" width="160" height="26" rx="13" fill="rgba(255,255,255,.08)"/>
  <rect x="92" y="160" width="1016" height="418" rx="18" fill="rgba(255,255,255,.03)"/>

  <circle cx="600" cy="340" r="110" fill="url(#g)" filter="url(#s)"/>
  <circle cx="600" cy="310" r="46" fill="rgba(255,255,255,.35)"/>
  <path d="M520 425c20-52 66-78 80-78s60 26 80 78" fill="rgba(255,255,255,.28)"/>
  <text x="600" y="510" text-anchor="middle" font-family="Segoe UI, Arial, sans-serif" font-size="34" font-weight="900" fill="rgba(255,255,255,.86)">
    Screenshot Placeholder
  </text>
  <text x="600" y="548" text-anchor="middle" font-family="Segoe UI, Arial, sans-serif" font-size="22" font-weight="700" fill="rgba(255,255,255,.65)">
    Replace with your real project image (assets/work1.jpg/png)
  </text>
</svg>


